#!OML:ASF C:\ViconDB\ViconDB\414\Spring2016\041811\Spring2016.ASF
:FULLY-SPECIFIED
:DEGREES
292
root 9.61296 16.8358 10.6498 -123.877 -31.6446 134.307
lowerback 21.4192 1.86188 17.5924
upperback 2.45667 6.11343 12.8798
thorax -8.82567 1.88724 3.03507
lowerneck -0.434922 -16.0906 -28.1272
upperneck 2.64379 -26.7026 36.3165
head 10.7282 -12.6479 13.6402
rclavicle 6.67916e-014 1.33583e-013
rhumerus 7.71844 -31.085 -19.1919
rradius 47.4258
rwrist 13.3885
rhand -44.8936 -24.0801
rfingers 7.12502
rthumb -17.6812 -53.2962
lclavicle 6.67916e-014 1.33583e-013
lhumerus 3.03134 36.4255 -13.8268
lradius 44.5228
lwrist 1.95767
lhand -44.654 32.3287
lfingers 7.12502
lthumb -17.4507 61.5654
rfemur 197.105 41.8835 -171.212
rtibia 59.9098
rfoot 9.49455 -68.1027
rtoes -16.0729
lfemur -5.15212 1.90854 -17.4435
ltibia 21.8244
lfoot 37.3118 -1.71745
ltoes -5.4733
293
root 9.58421 16.8631 10.3902 -122.967 -29.9889 134.037
lowerback 21.6777 1.82612 18.0425
upperback 2.52704 6.1833 12.9806
thorax -8.83789 1.89008 2.8979
lowerneck -1.0527 -16.0571 -27.9714
upperneck 2.60177 -26.3523 36.1193
head 10.6327 -12.4094 13.5779
rclavicle 4.77083e-014 4.77083e-015
rhumerus 8.90907 -31.9714 -19.2778
rradius 46.7254
rwrist 13.4495
rhand -45.6446 -24.7774
rfingers 7.12502
rthumb -18.4038 -53.9268
lclavicle 4.77083e-014 4.77083e-015
lhumerus 3.40523 36.69 -14.2389
lradius 44.7234
lwrist 1.5989
lhand -44.6945 33.0895
lfingers 7.12502
lthumb -17.4897 62.3227
rfemur 198.132 42.0229 -170.842
rtibia 60.0084
rfoot 8.03546 -67.9108
rtoes -15.204
lfemur -5.30393 2.54473 -17.0292
ltibia 21.5682
lfoot 37.3118 -1.71745
ltoes -5.4733
294
root 9.55862 16.8943 10.1201 -121.931 -28.3284 133.814
lowerback 21.8322 1.86294 18.4709
upperback 2.52623 6.33571 13.1064
thorax -8.8752 1.92979 2.78379
lowerneck -1.56225 -16.0586 -27.9442
upperneck 2.63051 -26.1032 35.848
head 10.579 -12.2274 13.4852
rclavicle -6.67916e-014 -1.68967e-013
rhumerus 9.839 -32.6948 -18.9544
rradius 46.0718
rwrist 12.9613
rhand -46.0796 -25.1092
rfingers 7.12502
rthumb -18.8222 -54.2186
lclavicle -6.67916e-014 -1.68967e-013
lhumerus 4.12978 37.2068 -14.1909
lradius 45.0515
lwrist 1.59058
lhand -44.9723 32.5725
lfingers 7.12502
lthumb -17.757 61.7818
rfemur 199.532 42.2271 -170.152
rtibia 60.0159
rfoot 6.14611 -67.7145
rtoes -14.5387
lfemur -5.41373 2.92363 -16.5665
ltibia 21.1723
lfoot 37.3118 -1.71745
ltoes -5.4733
295
root 9.54128 16.922 9.84455 -120.978 -26.6868 133.595
lowerback 22.1671 1.87234 18.8931
upperback 2.57196 6.49076 13.2231
thorax -8.95468 1.9683 2.65796
lowerneck -2.32043 -16.1009 -27.8781
upperneck 2.60208 -25.8492 35.6812
head 10.5749 -12.0208 13.4088
rclavicle -4.13472e-014 -6.09275e-014
rhumerus 11.1688 -33.9701 -19.0452
rradius 45.0486
rwrist 13.757
rhand -45.9707 -25.5915
rfingers 7.12502
rthumb -18.7175 -54.711
lclavicle -4.13472e-014 -6.09275e-014
lhumerus 4.91392 37.8671 -14.201
lradius 45.3241
lwrist 1.48059
lhand -45.0957 31.6249
lfingers 7.12502
lthumb -17.8757 60.8234
rfemur 200.796 42.3889 -169.534
rtibia 59.9663
rfoot 4.53878 -67.4313
rtoes -13.5828
lfemur -5.31317 3.43478 -15.9927
ltibia 20.5749
lfoot 37.3118 -1.71745
ltoes -5.4733
296
root 9.5248 16.9479 9.56519 -119.914 -24.9674 133.493
lowerback 22.3145 1.95401 19.2469
upperback 2.56078 6.6958 13.2762
thorax -8.99297 2.03755 2.48359
lowerneck -2.81518 -16.043 -27.7594
upperneck 2.4924 -25.5371 35.6417
head 10.497 -11.8193 13.4229
rclavicle -1.145e-013 -9.0447e-014
rhumerus 12.7059 -35.2944 -19.6451
rradius 43.9517
rwrist 13.8156
rhand -46.2895 -26.0877
rfingers 7.12502
rthumb -19.0241 -55.1773
lclavicle -1.145e-013 -9.0447e-014
lhumerus 5.82235 38.1135 -14.3104
lradius 45.5156
lwrist 1.38685
lhand -45.3804 30.9892
lfingers 7.12502
lthumb -18.1497 60.1624
rfemur 202.471 42.4861 -168.63
rtibia 59.8061
rfoot 2.83045 -67.1697
rtoes -12.5021
lfemur -5.23622 4.07167 -15.4616
ltibia 19.7525
lfoot 37.3118 -1.71745
ltoes -5.4733
297
root 9.50958 16.9754 9.28359 -118.795 -23.2371 133.208
lowerback 22.3996 1.96581 19.555
upperback 2.49837 6.80555 13.308
thorax -9.06884 2.06458 2.33672
lowerneck -3.29435 -15.9104 -27.6531
upperneck 2.60577 -25.1618 35.4446
head 10.4327 -11.5911 13.408
rclavicle -8.5875e-014 -5.36719e-014
rhumerus 14.224 -36.6318 -20.1977
rradius 42.6883
rwrist 14.5118
rhand -46.6923 -26.533
rfingers 7.12502
rthumb -19.4115 -55.5841
lclavicle -8.5875e-014 -5.36719e-014
lhumerus 6.74571 38.284 -14.3228
lradius 45.801
lwrist 0.8247
lhand -45.3394 30.5387
lfingers 7.12502
lthumb -18.1102 59.7156
rfemur 204.162 42.7779 -167.802
rtibia 59.5874
rfoot 0.760087 -66.9437
rtoes -12.026
lfemur -5.02883 4.3569 -15.0098
ltibia 18.6547
lfoot 37.3118 -1.71745
ltoes -5.4733
298
root 9.48901 17.0168 9.00548 -117.527 -21.4187 132.669
lowerback 22.3927 1.90299 19.9809
upperback 2.41388 6.83727 13.2193
thorax -9.09697 2.05868 2.01295
lowerneck -3.97225 -15.888 -27.5949
upperneck 2.81468 -24.9359 35.2292
head 10.494 -11.4069 13.3337
rclavicle 1.08139e-013 4.13472e-014
rhumerus 15.6743 -37.9291 -20.515
rradius 41.4481
rwrist 14.6145
rhand -46.9992 -26.8118
rfingers 7.12502
rthumb -19.7066 -55.8329
lclavicle 1.08139e-013 4.13472e-014
lhumerus 7.98632 38.8472 -14.1392
lradius 45.8707
lwrist -0.0469646
lhand -45.4126 31.0201
lfingers 7.12502
lthumb -18.1807 60.1905
rfemur 206.013 43.3002 -167.213
rtibia 59.2203
rfoot -1.17218 -66.928
rtoes -11.4833
lfemur -4.91569 3.9651 -14.7809
ltibia 17.4532
lfoot 37.3118 -1.71745
ltoes -5.4733
299
root 9.47567 17.0469 8.7213 -116.344 -19.5806 132.17
lowerback 22.3907 1.84184 20.3944
upperback 2.37824 6.87322 12.9215
thorax -9.04315 2.06865 1.44746
lowerneck -4.39683 -15.7738 -27.1313
upperneck 2.48139 -24.6069 35.5239
head 10.3551 -11.2039 13.4385
rclavicle -2.19458e-013 -2.36951e-013
rhumerus 16.6308 -39.373 -20.9175
rradius 40.3554
rwrist 14.7187
rhand -47.1847 -27.0898
rfingers 7.12502
rthumb -19.8849 -56.0925
lclavicle -2.19458e-013 -2.36951e-013
lhumerus 9.61441 39.3886 -14.0701
lradius 45.9822
lwrist -0.749659
lhand -45.6285 31.3282
lfingers 7.12502
lthumb -18.3883 60.4791
rfemur 207.833 43.7466 -166.593
rtibia 58.7966
rfoot -3.33356 -66.634
rtoes -10.5829
lfemur -4.60429 3.36407 -14.4395
ltibia 16.0925
lfoot 24.6559 6.35185
ltoes -9.08765
300
root 9.45601 17.0891 8.44573 -114.893 -17.9769 130.982
lowerback 22.2479 1.50337 20.636
upperback 2.13054 6.51895 13.1315
thorax -9.30177 1.8758 1.68168
lowerneck -5.07196 -15.6951 -27.6085
upperneck 2.96674 -24.2329 34.9298
head 10.4471 -10.9692 13.3528
rclavicle 8.5875e-014 3.02153e-014
rhumerus 18.9289 -40.3492 -21.5628
rradius 39.0695
rwrist 15.1141
rhand -47.2377 -27.9393
rfingers 7.12502
rthumb -19.9358 -56.9367
lclavicle 8.5875e-014 3.02153e-014
lhumerus 10.0568 39.302 -14.0333
lradius 46.3336
lwrist -0.930829
lhand -45.7177 31.0526
lfingers 7.12502
lthumb -18.4742 60.1954
rfemur 209.71 44.9421 -166.163
rtibia 58.2287
rfoot -5.43241 -66.2024
rtoes -11.0521
lfemur -4.4453 1.99592 -14.2214
ltibia 14.7889
lfoot 26.6099 8.83774
ltoes -5.45136
301
root 9.45088 17.128 8.161 -113.845 -16.0111 130.823
lowerback 22.3134 1.54414 20.832
upperback 2.15503 6.61435 13.1877
thorax -9.27996 1.91132 1.62217
lowerneck -5.66543 -15.5737 -27.7667
upperneck 3.01262 -23.7903 34.7773
head 10.4134 -10.714 13.4109
rclavicle 1.39944e-013 9.06458e-014
rhumerus 21.0973 -41.8378 -22.4155
rradius 37.8916
rwrist 15.6532
rhand -47.3434 -28.6028
rfingers 7.12502
rthumb -20.0374 -57.5896
lclavicle 1.39944e-013 9.06458e-014
lhumerus 11.0598 39.5572 -13.8547
lradius 46.6482
lwrist -1.08839
lhand -45.6484 31.4808
lfingers 7.12502
lthumb -18.4075 60.6298
rfemur 211.748 44.9894 -165.53
rtibia 57.5814
rfoot -7.72816 -65.8019
rtoes -10.252
lfemur -3.85157 1.25869 -13.8016
ltibia 13.5637
lfoot 27.4995 11.4242
ltoes -2.07257
302
root 9.45312 17.1645 7.87496 -112.843 -14.0869 130.743
lowerback 22.4516 1.57812 21.3685
upperback 2.25869 6.79191 12.907
thorax -9.10597 1.98744 0.971422
lowerneck -6.49302 -15.6091 -27.1426
upperneck 2.96494 -23.569 34.618
head 10.3576 -10.5092 13.2308
rclavicle 6.67916e-014 1.27222e-014
rhumerus 22.658 -43.6898 -23.2792
rradius 36.9555
rwrist 15.734
rhand -47.7367 -28.7424
rfingers 7.12502
rthumb -20.4154 -57.6892
lclavicle 6.67916e-014 1.27222e-014
lhumerus 12.8052 40.3169 -13.4592
lradius 46.2971
lwrist -3.75271
lhand -45.736 32.3822
lfingers 7.12502
lthumb -18.4918 61.5233
rfemur 213.614 44.8379 -165.14
rtibia 56.837
rfoot -9.74127 -65.2669
rtoes -10.1548
lfemur -3.19063 1.01293 -13.2531
ltibia 12.5801
lfoot 27.8666 13.3738
ltoes 0.814962
303
root 9.46028 17.1834 7.58398 -111.944 -12.0879 130.627
lowerback 22.6878 1.62219 21.3821
upperback 2.33931 6.8907 13.0031
thorax -9.13681 2.03118 1.04248
lowerneck -7.21669 -15.5613 -27.1793
upperneck 3.27588 -23.2038 34.0705
head 10.3582 -10.2722 13.0715
rclavicle 3.18055e-014 7.95139e-014
rhumerus 25.4153 -45.3749 -24.6973
rradius 35.8438
rwrist 16.6384
rhand -48.1338 -29.1727
rfingers 7.12502
rthumb -20.7969 -58.0782
lclavicle 3.18055e-014 7.95139e-014
lhumerus 13.8565 40.635 -13.2451
lradius 46.6418
lwrist -3.12255
lhand -45.8475 31.3455
lfingers 7.12502
lthumb -18.599 60.4764
rfemur 215.072 44.6056 -165.269
rtibia 56.0294
rfoot -10.2483 -64.5691
rtoes -8.88245
lfemur -2.21863 1.12116 -12.7339
ltibia 11.6962
lfoot 27.8766 15.0969
ltoes 2.67578
